# xmcd CD database file generated by OrangeCD 5.2
#
# Track frame offsets:
#	150
#	9765
#	23934
#	36390
#	59266
#	69476
#	86667
#	102018
#	114685
#	129373
#	139331
#	153432
#	162810
#	171562
#	183801
#	199103
#	209900
#	222576
#
# Disc length: 3160 seconds
#
# Revision: 0
# Processed by: cddbd v1.5.1PL0 Copyright (c) Steve Scherf et al.
# Submitted via: OrangeCD 5.2
#
DISCID=060c5612
DTITLE=Various Artist - Back to Back
DYEAR=1900
DGENRE=Country
TTITLE0=Ferlin Husky - Truck Drivin' Son of a Gun
TTITLE1=Ferlin Husky - Hello, I'm a Truck
TTITLE2=Ferlin Husky - Don't Fall Asleep at the Wheel
TTITLE3=Ferlin Husky - Teddy Bear
TTITLE4=Ferlin Husky - Six Days on the Road
TTITLE5=Ferlin Husky - Convoy
TTITLE6=Ferlin Husky - Phantom 309
TTITLE7=The Drunken Driver
TTITLE8=Ferlin Husky - Truck Driver Blues
TTITLE9=Tex Ritter - Boll Weevil Song
TTITLE10=Tex Ritter - The Fool's Paradise
TTITLE11=Tex Ritter - Froggie Went A-Courtin'
TTITLE12=Tex Ritter - Keeper of the Key
TTITLE13=Tex Ritter - Gallow's Pole
TTITLE14=Tex Ritter - I Dreamed of a Hillbilly Heaven
TTITLE15=Tex Ritter - Have I Stayed Away Too Long
TTITLE16=Tex Ritter - High Noon
TTITLE17=Tex Ritter - Conversation with a Gun
EXTD=
EXTT0=
EXTT1=
EXTT2=
EXTT3=
EXTT4=
EXTT5=
EXTT6=
EXTT7=
EXTT8=
EXTT9=
EXTT10=
EXTT11=
EXTT12=
EXTT13=
EXTT14=
EXTT15=
EXTT16=
EXTT17=
PLAYORDER=
